<svg width="512pt" height="512pt" version="1.1" viewBox="0 0 512 512" xmlns="http://www.w3.org/2000/svg">
 <g stroke-width=".90206">
  <path d="m372.74 301.22c-37.605 8.0815-76.04 11.786-114.5 12.152v186.04c39.448-0.0727 78.71-5.5652 117.19-14.004v-184.72c-0.89633 0.17545-1.7927 0.3509-2.689 0.52635z" fill="#e06648"/>
  <path d="m136.56 303.36v182.06c38.482 8.4054 77.738 13.938 117.19 13.985v-186.03c-39.366-0.38484-78.741-4.1778-117.19-12.806v2.7925z" fill="#e08c26"/>
  <path d="m494.2 238.77c-20.158 21.967-45.887 38.321-73.876 48.437-13.171 4.906-26.788 8.7908-40.408 12.386v185.06c37.523-10.567 77.673-23.123 103.82-53.879 16.076-17.713 15.244-43.389 14.264-65.734v-129.87c-1.2685 1.1995-2.537 2.399-3.8056 3.5985z" fill="#7f92e0"/>
  <path d="m15.584 237.13c-3.9114 2.806-0.14896 8.9922-1.535 12.943 0.81146 51.801-2.0089 103.77 1.5218 155.46 6.9992 27.831 32.101 46.241 56.733 57.988 19.034 9.2786 39.36 15.52 59.766 20.982v-184.93c-42.401-10.627-86.219-27.315-114.4-62.182-0.56613-0.32844-1.4708-0.67597-2.0878-0.26428z" fill="#e0b61a"/>
 </g>
 <g transform="matrix(.8 0 0 .8 51.2 44.8)">
  <path d="m254.27 63.887c-81.785 0.9458-166.16 12.221-238.85 52.375-28.681 15.584-55.984 41.306-60.369 75.146-2.7757 31.021 17.788 59.53 42.742 76.244 46.1 33.398 103.24 46.886 158.54 56.378 90.776 13.582 184.5 9.2892 273.01-15.353 41.039-12.363 82.937-30.249 112.26-62.793 16.225-19.234 24.884-46.707 14.896-70.9-13.187-34.528-46.678-55.523-78.869-70.301-61.854-27.883-130.11-37.984-197.33-40.437-8.675-0.27899-17.355-0.38864-26.034-0.35875z" fill="#ccc" opacity=".87" stroke-width="1.1218"/>
  <path d="m-10.362-37.535c-12.751 12.748-25.499 25.499-38.252 38.245 52.65 53.383 106.81 105.27 158.42 159.69-4.4057 31.516 33.113 59.564 62.003 45.858 27.19-10.616 37.642-50.671 16.859-72.008-9.9123-10.525-24.614-16.61-39.102-15.128-52.776-52.75-105.55-105.5-158.33-158.25l-0.79731 0.79731z" fill="#333" stroke-width="1.1276"/>
  <path d="m519.16-37.54c-52.846 52.123-104.19 105.78-158.1 156.82-31.401-4.3538-59.409 32.881-45.942 61.754 10.456 27.369 50.692 37.965 72.099 17.121 10.529-9.9129 16.617-24.618 15.134-39.108 52.75-52.776 105.5-105.55 158.25-158.33-13.282-13.279-26.566-26.556-39.848-39.835l-0.80174 0.79287z" fill="#333" stroke-width="1.1276"/>
 </g>
</svg>
