<svg width="512pt" height="512pt" version="1.1" viewBox="0 0 512 512" xmlns="http://www.w3.org/2000/svg">
 <path d="m4 10v321c0 139.18 112.82 169.43 252 169.43s252-30.257 252-169.43v-321h-252z" fill="#333" opacity=".8"/>
 <g transform="matrix(.8 0 0 .8 51.2 44.8)">
  <path d="m270.99 511.79c35.957-0.85937 71.992-6.0547 104.91-12.938v-179.43c-33.508 6.668-69.254 10.289-104.91 11.09z" fill="#e06648"/>
  <path d="m136.1 498.85c32.922 6.8828 68.957 12.082 104.91 12.938v-181.27c-35.66-0.80078-71.406-4.4219-104.91-11.09z" fill="#e08c26"/>
  <path d="m405.88 491.5c60.91-17.379 105.91-46.215 105.91-85.621v-145.26c-24.262 23.227-62.617 40.352-105.91 51.953z" fill="#7f92e0"/>
  <path d="m0.21094 405.88c0 39.406 45.004 68.246 105.91 85.625v-178.93c-43.297-11.602-81.652-28.727-105.91-51.953z" fill="#e0b61a"/>
  <g fill="#fff">
   <path d="m166.07 196.05c16.523 0 29.977-13.453 29.977-29.977 0-17.906-16.008-34-37.281-28.496l-137.57-137.58-21.195 21.195 137.58 137.57c-5.5039 21.277 10.59 37.281 28.496 37.281z"/>
   <path d="m511.79 196.05c0-29.191-25.191-52.57-62.434-69.824l-43.598 43.594c-1.9453 31.324-28.027 56.203-59.832 56.203-33.062 0-59.949-26.887-59.949-59.949 0-31.805 24.879-57.887 56.203-59.832l7.918-7.9219c-30.328-4.7344-62.453-7.1836-94.098-7.1836s-63.77 2.4492-94.098 7.1836l7.918 7.9219c31.324 1.9453 56.203 28.027 56.203 59.832 0 33.062-26.887 59.949-59.949 59.949-31.805 0-57.887-24.879-59.832-56.203l-43.598-43.594c-37.242 17.254-62.434 40.637-62.434 69.824 0 68.145 132.27 104.91 255.79 104.91 123.52 0 255.79-36.77 255.79-104.91z"/>
   <path d="m315.95 166.07c0 16.523 13.453 29.977 29.977 29.977 17.906 0 34-16.008 28.496-37.281l137.58-137.57-21.195-21.195-137.57 137.58c-21.273-5.5039-37.281 10.59-37.281 28.496z"/>
  </g>
 </g>
</svg>
