<svg width="512pt" height="512pt" version="1.1" viewBox="0 0 512 512" xmlns="http://www.w3.org/2000/svg">
 <path transform="scale(.75)" d="m5.334 13.334v428c0 185.57 150.43 225.91 336 225.91 185.57 0 336-40.342 336-225.91v-428h-336-336zm85.541 46.398 146.75 146.75c22.692-5.8708 39.766 11.296 39.766 30.396 0 17.625-14.35 31.975-31.975 31.975-19.1 0-36.265-17.07-30.395-39.766l-146.75-146.75 22.607-22.609zm500.92 0 22.609 22.609-146.75 146.75c5.8708 22.692-11.296 39.766-30.396 39.766-17.625 0-31.975-14.35-31.975-31.975 0-19.1 17.074-36.267 39.766-30.396l146.75-146.75zm-250.46 97.213c33.754 0 68.021 2.6121 100.37 7.6621l-8.4473 8.4512c-33.412 2.075-59.949 29.895-59.949 63.82 0 35.267 28.679 63.945 63.945 63.945 33.925 0 61.745-26.537 63.82-59.949l46.506-46.5c39.725 18.404 66.596 43.341 66.596 74.479 0 72.688-141.09 111.91-272.84 111.91s-272.84-39.221-272.84-111.91c0-31.133 26.871-56.074 66.596-74.479l46.504 46.5c2.075 33.412 29.895 59.949 63.82 59.949 35.267 0 63.945-28.679 63.945-63.945 0-33.925-26.537-61.745-59.949-63.82l-8.4453-8.4512c32.35-5.05 66.617-7.6621 100.37-7.6621zm-272.84 180.78c25.879 24.775 66.791 43.043 112.97 55.418v190.86c-64.971-18.538-112.97-49.301-112.97-91.334v-154.94zm545.68 0v154.95c0 42.033-48.006 72.793-112.98 91.33v-190.86c46.183-12.375 87.097-30.643 112.98-55.418zm-400.74 62.73c35.742 7.1125 73.871 10.974 111.91 11.828v193.36c-38.354-0.9125-76.792-6.4591-111.91-13.801v-191.39zm255.79 0v191.39c-35.117 7.3417-73.554 12.884-111.91 13.801v-193.36c38.038-0.85416 76.167-4.7156 111.91-11.828z" fill="#333" opacity=".87" stroke-width="1.3333"/>
</svg>
