<?xml version="1.0" standalone="no"?>
<!DOCTYPE svg PUBLIC "-//W3C//DTD SVG 20010904//EN"
 "http://www.w3.org/TR/2001/REC-SVG-20010904/DTD/svg10.dtd">
<svg version="1.0" xmlns="http://www.w3.org/2000/svg"
 width="700.000000pt" height="700.000000pt" viewBox="0 0 700.000000 700.000000"
 preserveAspectRatio="xMidYMid meet">
<metadata>
Created by potrace 1.11, written by Peter Selinger 2001-2013
</metadata>
<g transform="translate(0.000000,700.000000) scale(0.100000,-0.100000)"
fill="#000000" stroke="none">
<path d="M57 6855 c-6 -18 0 -4599 6 -4630 3 -16 8 -59 12 -95 51 -525 274
-973 641 -1290 49 -42 176 -135 227 -166 27 -16 56 -34 65 -39 38 -24 172 -91
252 -127 179 -81 414 -155 675 -212 84 -19 157 -32 315 -56 41 -6 86 -13 99
-15 14 -3 54 -7 90 -11 36 -3 72 -7 81 -9 21 -4 130 -14 215 -20 39 -2 106 -7
150 -10 280 -20 971 -20 1230 0 39 2 106 7 150 10 142 11 313 29 455 50 150
22 168 25 215 35 22 5 55 11 72 15 18 3 63 12 100 21 38 9 75 17 83 19 31 6
108 27 205 56 823 247 1326 747 1485 1474 29 135 29 135 35 180 2 22 7 58 9
80 3 22 8 69 12 105 8 74 12 4639 4 4641 -3 1 -1552 2 -3442 2 -2284 1 -3439
-1 -3441 -8z m1632 -1224 l749 -749 39 7 c59 11 117 3 177 -23 152 -67 226
-246 170 -408 -27 -76 -120 -168 -194 -193 -127 -43 -266 -10 -351 82 -63 68
-82 122 -82 225 l0 87 -749 748 -748 748 112 112 c62 62 116 113 120 113 5 0
345 -337 757 -749z m4498 637 l113 -113 -747 -747 -748 -748 -1 -89 c-1 -112
-30 -178 -107 -246 -120 -104 -305 -106 -422 -3 -103 91 -137 194 -108 323 34
149 155 248 301 245 37 -1 75 -1 84 -1 9 0 351 335 760 745 409 409 747 745
753 745 5 1 60 -50 122 -111z m-2222 -891 c22 -3 75 -8 117 -12 71 -5 265 -26
381 -41 26 -4 49 -10 52 -14 4 -7 -80 -94 -86 -90 -2 2 -26 0 -54 -4 -197 -29
-385 -167 -475 -352 -126 -255 -79 -554 119 -754 268 -271 709 -254 962 37 77
89 139 226 153 343 6 42 17 55 243 281 l238 237 78 -39 c374 -189 587 -433
601 -691 24 -421 -402 -767 -1211 -987 -172 -47 -447 -103 -618 -126 -66 -9
-136 -18 -156 -21 -71 -9 -105 -13 -179 -19 -41 -3 -89 -8 -106 -10 -184 -22
-757 -23 -1024 -1 -25 3 -84 7 -132 11 -48 3 -97 8 -109 10 -12 3 -45 7 -73
10 -98 11 -131 15 -146 20 -8 2 -37 6 -65 10 -69 8 -263 43 -303 54 -17 5 -32
8 -32 6 0 -3 -11 0 -26 5 -14 6 -39 12 -57 15 -54 10 -216 54 -332 92 -725
233 -1095 601 -1010 1004 47 228 258 449 586 614 l85 43 237 -237 c225 -226
237 -240 243 -282 40 -323 325 -573 649 -571 130 1 230 28 334 89 130 77 227
196 284 347 28 75 31 91 31 211 1 108 -3 142 -21 200 -79 247 -288 419 -561
458 -26 4 -105 78 -94 88 4 4 30 10 57 13 28 4 84 11 125 16 41 5 102 12 135
15 33 3 76 8 95 10 19 2 85 7 145 11 61 3 112 7 114 9 5 6 761 -3 806 -8z
m-3229 -1869 c61 -69 305 -226 481 -308 163 -77 426 -173 601 -220 l42 -11 0
-978 0 -979 -67 19 c-38 11 -77 24 -88 28 -11 5 -83 32 -160 61 -205 78 -369
165 -530 282 -63 45 -185 179 -223 245 -22 37 -51 97 -64 133 l-23 65 -1 843
c-1 463 2 842 6 842 4 0 15 -10 26 -22z m5561 -795 c0 -609 -3 -833 -12 -878
-63 -306 -394 -570 -962 -765 -62 -22 -113 -37 -113 -35 0 2 -16 -3 -35 -11
l-35 -14 0 979 0 980 43 12 c198 53 466 153 641 239 144 71 335 194 411 263
28 26 53 46 56 47 4 0 6 -368 6 -817z m-4004 163 c45 -9 139 -25 187 -31 25
-3 52 -8 60 -10 8 -2 44 -7 80 -10 36 -3 72 -8 80 -10 8 -2 51 -7 95 -10 44
-4 96 -8 115 -10 36 -4 227 -15 334 -20 33 -2 68 -4 76 -4 14 -1 16 -107 16
-992 l-1 -990 -110 5 c-169 9 -287 19 -390 32 -22 3 -53 7 -70 8 -54 6 -299
44 -385 61 -14 2 -36 7 -50 9 -14 3 -51 10 -82 16 l-58 11 0 981 0 981 38 -6
c20 -3 49 -8 65 -11z m2517 -965 l0 -979 -27 -6 c-16 -4 -41 -9 -58 -11 -16
-3 -53 -10 -81 -16 -28 -5 -61 -12 -75 -14 -13 -2 -51 -9 -84 -14 -54 -10
-170 -27 -235 -36 -14 -1 -56 -6 -95 -9 -38 -4 -81 -9 -95 -11 -35 -6 -154
-14 -285 -21 l-111 -5 0 991 c0 990 0 990 21 991 11 1 45 2 75 4 124 5 308 16
345 20 22 3 65 7 95 10 30 3 71 7 90 10 19 2 58 7 85 10 28 3 64 7 80 10 17 3
48 7 70 10 79 11 110 16 125 20 8 2 38 7 65 11 28 3 52 8 54 10 2 2 13 4 23 4
17 0 18 -36 18 -979z"/>
</g>
</svg>
