<svg height="512pt" viewBox="0 0 512 512" width="512pt" xmlns="http://www.w3.org/2000/svg">
    <path d="m270.988281 511.789062c35.957031-.859374 71.992188-6.054687 104.914063-12.9375v-179.425781c-33.507813 6.667969-69.253906 10.289063-104.914063 11.089844zm0 0"/>
    <path d="m136.097656 498.851562c32.921875 6.882813 68.957032 12.082032 104.914063 12.9375v-181.273437c-35.660157-.800781-71.40625-4.421875-104.914063-11.089844zm0 0"/>
    <path d="m405.875 491.5c60.910156-17.378906 105.914062-46.214844 105.914062-85.621094v-145.261718c-24.261718 23.226562-62.617187 40.351562-105.914062 51.953124zm0 0"/>
    <path d="m.210938 405.875c0 39.40625 45.003906 68.246094 105.914062 85.625v-178.929688c-43.296875-11.601562-81.652344-28.726562-105.914062-51.953124zm0 0"/>
    <path d="m166.074219 196.050781c16.523437 0 29.976562-13.453125 29.976562-29.976562 0-17.90625-16.007812-34-37.28125-28.496094l-137.574219-137.578125-21.195312 21.195312 137.578125 137.574219c-5.503906 21.277344 10.589844 37.28125 28.496094 37.28125zm0 0"/>
    <path d="m511.789062 196.050781c0-29.191406-25.191406-52.570312-62.433593-69.824219l-43.597657 43.59375c-1.945312 31.324219-28.027343 56.203126-59.832031 56.203126-33.0625 0-59.949219-26.886719-59.949219-59.949219 0-31.804688 24.878907-57.886719 56.203126-59.832031l7.917968-7.921876c-30.328125-4.734374-62.453125-7.183593-94.097656-7.183593s-63.769531 2.449219-94.097656 7.183593l7.917968 7.921876c31.324219 1.945312 56.203126 28.027343 56.203126 59.832031 0 33.0625-26.886719 59.949219-59.949219 59.949219-31.804688 0-57.886719-24.878907-59.832031-56.203126l-43.597657-43.59375c-37.242187 17.253907-62.433593 40.636719-62.433593 69.824219 0 68.144531 132.273437 104.914063 255.789062 104.914063s255.789062-36.769532 255.789062-104.914063zm0 0"/>
    <path d="m315.949219 166.074219c0 16.523437 13.453125 29.976562 29.976562 29.976562 17.90625 0 34-16.007812 28.496094-37.28125l137.578125-137.574219-21.195312-21.195312-137.574219 137.578125c-21.273438-5.503906-37.28125 10.589844-37.28125 28.496094zm0 0"/>
</svg>
